<?xml version="1.0" standalone="yes"?>
<svg xmlns="http://www.w3.org/2000/svg" version="1.1" width="1024" height="1024">
  <rect x="0" y="0" width="1024" height="1024" style="fill:transparent;shape-rendering:crispEdges;"/>
  <rect x="110.70270270270271" y="110.70270270270271" width="27.675675675675677" height="27.675675675675677" style="fill:rgb(59,104,171);shape-rendering:crispEdges;"/>
  <rect x="138.3783783783784" y="110.70270270270271" width="27.675675675675677" height="27.675675675675677" style="fill:rgb(59,104,171);shape-rendering:crispEdges;"/>
  <rect x="166.05405405405406" y="110.70270270270271" width="27.675675675675677" height="27.675675675675677" style="fill:rgb(59,104,171);shape-rendering:crispEdges;"/>
  <rect x="193.72972972972974" y="110.70270270270271" width="27.675675675675677" height="27.675675675675677" style="fill:rgb(59,104,171);shape-rendering:crispEdges;"/>
  <rect x="221.40540540540542" y="110.70270270270271" width="27.675675675675677" height="27.675675675675677" style="fill:rgb(59,104,171);shape-rendering:crispEdges;"/>
  <rect x="249.0810810810811" y="110.70270270270271" width="27.675675675675677" height="27.675675675675677" style="fill:rgb(59,104,171);shape-rendering:crispEdges;"/>
  <rect x="276.7567567567568" y="110.70270270270271" width="27.675675675675677" height="27.675675675675677" style="fill:rgb(59,104,171);shape-rendering:crispEdges;"/>
  <rect x="332.1081081081081" y="110.70270270270271" width="27.675675675675677" height="27.675675675675677" style="fill:rgb(59,104,171);shape-rendering:crispEdges;"/>
  <rect x="387.4594594594595" y="110.70270270270271" width="27.675675675675677" height="27.675675675675677" style="fill:rgb(59,104,171);shape-rendering:crispEdges;"/>
  <rect x="470.4864864864865" y="110.70270270270271" width="27.675675675675677" height="27.675675675675677" style="fill:rgb(59,104,171);shape-rendering:crispEdges;"/>
  <rect x="525.8378378378379" y="110.70270270270271" width="27.675675675675677" height="27.675675675675677" style="fill:rgb(59,104,171);shape-rendering:crispEdges;"/>
  <rect x="553.5135135135135" y="110.70270270270271" width="27.675675675675677" height="27.675675675675677" style="fill:rgb(59,104,171);shape-rendering:crispEdges;"/>
  <rect x="581.1891891891892" y="110.70270270270271" width="27.675675675675677" height="27.675675675675677" style="fill:rgb(59,104,171);shape-rendering:crispEdges;"/>
  <rect x="664.2162162162163" y="110.70270270270271" width="27.675675675675677" height="27.675675675675677" style="fill:rgb(59,104,171);shape-rendering:crispEdges;"/>
  <rect x="719.5675675675676" y="110.70270270270271" width="27.675675675675677" height="27.675675675675677" style="fill:rgb(59,104,171);shape-rendering:crispEdges;"/>
  <rect x="747.2432432432433" y="110.70270270270271" width="27.675675675675677" height="27.675675675675677" style="fill:rgb(59,104,171);shape-rendering:crispEdges;"/>
  <rect x="774.918918918919" y="110.70270270270271" width="27.675675675675677" height="27.675675675675677" style="fill:rgb(59,104,171);shape-rendering:crispEdges;"/>
  <rect x="802.5945945945946" y="110.70270270270271" width="27.675675675675677" height="27.675675675675677" style="fill:rgb(59,104,171);shape-rendering:crispEdges;"/>
  <rect x="830.2702702702703" y="110.70270270270271" width="27.675675675675677" height="27.675675675675677" style="fill:rgb(59,104,171);shape-rendering:crispEdges;"/>
  <rect x="857.945945945946" y="110.70270270270271" width="27.675675675675677" height="27.675675675675677" style="fill:rgb(59,104,171);shape-rendering:crispEdges;"/>
  <rect x="885.6216216216217" y="110.70270270270271" width="27.675675675675677" height="27.675675675675677" style="fill:rgb(59,104,171);shape-rendering:crispEdges;"/>
  <rect x="110.70270270270271" y="138.3783783783784" width="27.675675675675677" height="27.675675675675677" style="fill:rgb(59,104,171);shape-rendering:crispEdges;"/>
  <rect x="276.7567567567568" y="138.3783783783784" width="27.675675675675677" height="27.675675675675677" style="fill:rgb(59,104,171);shape-rendering:crispEdges;"/>
  <rect x="359.7837837837838" y="138.3783783783784" width="27.675675675675677" height="27.675675675675677" style="fill:rgb(59,104,171);shape-rendering:crispEdges;"/>
  <rect x="387.4594594594595" y="138.3783783783784" width="27.675675675675677" height="27.675675675675677" style="fill:rgb(59,104,171);shape-rendering:crispEdges;"/>
  <rect x="415.13513513513516" y="138.3783783783784" width="27.675675675675677" height="27.675675675675677" style="fill:rgb(59,104,171);shape-rendering:crispEdges;"/>
  <rect x="498.1621621621622" y="138.3783783783784" width="27.675675675675677" height="27.675675675675677" style="fill:rgb(59,104,171);shape-rendering:crispEdges;"/>
  <rect x="553.5135135135135" y="138.3783783783784" width="27.675675675675677" height="27.675675675675677" style="fill:rgb(59,104,171);shape-rendering:crispEdges;"/>
  <rect x="581.1891891891892" y="138.3783783783784" width="27.675675675675677" height="27.675675675675677" style="fill:rgb(59,104,171);shape-rendering:crispEdges;"/>
  <rect x="664.2162162162163" y="138.3783783783784" width="27.675675675675677" height="27.675675675675677" style="fill:rgb(59,104,171);shape-rendering:crispEdges;"/>
  <rect x="719.5675675675676" y="138.3783783783784" width="27.675675675675677" height="27.675675675675677" style="fill:rgb(59,104,171);shape-rendering:crispEdges;"/>
  <rect x="885.6216216216217" y="138.3783783783784" width="27.675675675675677" height="27.675675675675677" style="fill:rgb(59,104,171);shape-rendering:crispEdges;"/>
  <rect x="110.70270270270271" y="166.05405405405406" width="27.675675675675677" height="27.675675675675677" style="fill:rgb(59,104,171);shape-rendering:crispEdges;"/>
  <rect x="166.05405405405406" y="166.05405405405406" width="27.675675675675677" height="27.675675675675677" style="fill:rgb(59,104,171);shape-rendering:crispEdges;"/>
  <rect x="193.72972972972974" y="166.05405405405406" width="27.675675675675677" height="27.675675675675677" style="fill:rgb(59,104,171);shape-rendering:crispEdges;"/>
  <rect x="221.40540540540542" y="166.05405405405406" width="27.675675675675677" height="27.675675675675677" style="fill:rgb(59,104,171);shape-rendering:crispEdges;"/>
  <rect x="276.7567567567568" y="166.05405405405406" width="27.675675675675677" height="27.675675675675677" style="fill:rgb(59,104,171);shape-rendering:crispEdges;"/>
  <rect x="415.13513513513516" y="166.05405405405406" width="27.675675675675677" height="27.675675675675677" style="fill:rgb(59,104,171);shape-rendering:crispEdges;"/>
  <rect x="442.81081081081084" y="166.05405405405406" width="27.675675675675677" height="27.675675675675677" style="fill:rgb(59,104,171);shape-rendering:crispEdges;"/>
  <rect x="470.4864864864865" y="166.05405405405406" width="27.675675675675677" height="27.675675675675677" style="fill:rgb(59,104,171);shape-rendering:crispEdges;"/>
  <rect x="498.1621621621622" y="166.05405405405406" width="27.675675675675677" height="27.675675675675677" style="fill:rgb(59,104,171);shape-rendering:crispEdges;"/>
  <rect x="636.5405405405406" y="166.05405405405406" width="27.675675675675677" height="27.675675675675677" style="fill:rgb(59,104,171);shape-rendering:crispEdges;"/>
  <rect x="664.2162162162163" y="166.05405405405406" width="27.675675675675677" height="27.675675675675677" style="fill:rgb(59,104,171);shape-rendering:crispEdges;"/>
  <rect x="719.5675675675676" y="166.05405405405406" width="27.675675675675677" height="27.675675675675677" style="fill:rgb(59,104,171);shape-rendering:crispEdges;"/>
  <rect x="774.918918918919" y="166.05405405405406" width="27.675675675675677" height="27.675675675675677" style="fill:rgb(59,104,171);shape-rendering:crispEdges;"/>
  <rect x="802.5945945945946" y="166.05405405405406" width="27.675675675675677" height="27.675675675675677" style="fill:rgb(59,104,171);shape-rendering:crispEdges;"/>
  <rect x="830.2702702702703" y="166.05405405405406" width="27.675675675675677" height="27.675675675675677" style="fill:rgb(59,104,171);shape-rendering:crispEdges;"/>
  <rect x="885.6216216216217" y="166.05405405405406" width="27.675675675675677" height="27.675675675675677" style="fill:rgb(59,104,171);shape-rendering:crispEdges;"/>
  <rect x="110.70270270270271" y="193.72972972972974" width="27.675675675675677" height="27.675675675675677" style="fill:rgb(59,104,171);shape-rendering:crispEdges;"/>
  <rect x="166.05405405405406" y="193.72972972972974" width="27.675675675675677" height="27.675675675675677" style="fill:rgb(59,104,171);shape-rendering:crispEdges;"/>
  <rect x="193.72972972972974" y="193.72972972972974" width="27.675675675675677" height="27.675675675675677" style="fill:rgb(59,104,171);shape-rendering:crispEdges;"/>
  <rect x="221.40540540540542" y="193.72972972972974" width="27.675675675675677" height="27.675675675675677" style="fill:rgb(59,104,171);shape-rendering:crispEdges;"/>
  <rect x="276.7567567567568" y="193.72972972972974" width="27.675675675675677" height="27.675675675675677" style="fill:rgb(59,104,171);shape-rendering:crispEdges;"/>
  <rect x="359.7837837837838" y="193.72972972972974" width="27.675675675675677" height="27.675675675675677" style="fill:rgb(59,104,171);shape-rendering:crispEdges;"/>
  <rect x="387.4594594594595" y="193.72972972972974" width="27.675675675675677" height="27.675675675675677" style="fill:rgb(59,104,171);shape-rendering:crispEdges;"/>
  <rect x="415.13513513513516" y="193.72972972972974" width="27.675675675675677" height="27.675675675675677" style="fill:rgb(59,104,171);shape-rendering:crispEdges;"/>
  <rect x="498.1621621621622" y="193.72972972972974" width="27.675675675675677" height="27.675675675675677" style="fill:rgb(59,104,171);shape-rendering:crispEdges;"/>
  <rect x="636.5405405405406" y="193.72972972972974" width="27.675675675675677" height="27.675675675675677" style="fill:rgb(59,104,171);shape-rendering:crispEdges;"/>
  <rect x="664.2162162162163" y="193.72972972972974" width="27.675675675675677" height="27.675675675675677" style="fill:rgb(59,104,171);shape-rendering:crispEdges;"/>
  <rect x="719.5675675675676" y="193.72972972972974" width="27.675675675675677" height="27.675675675675677" style="fill:rgb(59,104,171);shape-rendering:crispEdges;"/>
  <rect x="774.918918918919" y="193.72972972972974" width="27.675675675675677" height="27.675675675675677" style="fill:rgb(59,104,171);shape-rendering:crispEdges;"/>
  <rect x="802.5945945945946" y="193.72972972972974" width="27.675675675675677" height="27.675675675675677" style="fill:rgb(59,104,171);shape-rendering:crispEdges;"/>
  <rect x="830.2702702702703" y="193.72972972972974" width="27.675675675675677" height="27.675675675675677" style="fill:rgb(59,104,171);shape-rendering:crispEdges;"/>
  <rect x="885.6216216216217" y="193.72972972972974" width="27.675675675675677" height="27.675675675675677" style="fill:rgb(59,104,171);shape-rendering:crispEdges;"/>
  <rect x="110.70270270270271" y="221.40540540540542" width="27.675675675675677" height="27.675675675675677" style="fill:rgb(59,104,171);shape-rendering:crispEdges;"/>
  <rect x="166.05405405405406" y="221.40540540540542" width="27.675675675675677" height="27.675675675675677" style="fill:rgb(59,104,171);shape-rendering:crispEdges;"/>
  <rect x="193.72972972972974" y="221.40540540540542" width="27.675675675675677" height="27.675675675675677" style="fill:rgb(59,104,171);shape-rendering:crispEdges;"/>
  <rect x="221.40540540540542" y="221.40540540540542" width="27.675675675675677" height="27.675675675675677" style="fill:rgb(59,104,171);shape-rendering:crispEdges;"/>
  <rect x="276.7567567567568" y="221.40540540540542" width="27.675675675675677" height="27.675675675675677" style="fill:rgb(59,104,171);shape-rendering:crispEdges;"/>
  <rect x="332.1081081081081" y="221.40540540540542" width="27.675675675675677" height="27.675675675675677" style="fill:rgb(59,104,171);shape-rendering:crispEdges;"/>
  <rect x="359.7837837837838" y="221.40540540540542" width="27.675675675675677" height="27.675675675675677" style="fill:rgb(59,104,171);shape-rendering:crispEdges;"/>
  <rect x="415.13513513513516" y="221.40540540540542" width="27.675675675675677" height="27.675675675675677" style="fill:rgb(59,104,171);shape-rendering:crispEdges;"/>
  <rect x="498.1621621621622" y="221.40540540540542" width="27.675675675675677" height="27.675675675675677" style="fill:rgb(59,104,171);shape-rendering:crispEdges;"/>
  <rect x="608.8648648648649" y="221.40540540540542" width="27.675675675675677" height="27.675675675675677" style="fill:rgb(59,104,171);shape-rendering:crispEdges;"/>
  <rect x="719.5675675675676" y="221.40540540540542" width="27.675675675675677" height="27.675675675675677" style="fill:rgb(59,104,171);shape-rendering:crispEdges;"/>
  <rect x="774.918918918919" y="221.40540540540542" width="27.675675675675677" height="27.675675675675677" style="fill:rgb(59,104,171);shape-rendering:crispEdges;"/>
  <rect x="802.5945945945946" y="221.40540540540542" width="27.675675675675677" height="27.675675675675677" style="fill:rgb(59,104,171);shape-rendering:crispEdges;"/>
  <rect x="830.2702702702703" y="221.40540540540542" width="27.675675675675677" height="27.675675675675677" style="fill:rgb(59,104,171);shape-rendering:crispEdges;"/>
  <rect x="885.6216216216217" y="221.40540540540542" width="27.675675675675677" height="27.675675675675677" style="fill:rgb(59,104,171);shape-rendering:crispEdges;"/>
  <rect x="110.70270270270271" y="249.0810810810811" width="27.675675675675677" height="27.675675675675677" style="fill:rgb(59,104,171);shape-rendering:crispEdges;"/>
  <rect x="276.7567567567568" y="249.0810810810811" width="27.675675675675677" height="27.675675675675677" style="fill:rgb(59,104,171);shape-rendering:crispEdges;"/>
  <rect x="387.4594594594595" y="249.0810810810811" width="27.675675675675677" height="27.675675675675677" style="fill:rgb(59,104,171);shape-rendering:crispEdges;"/>
  <rect x="415.13513513513516" y="249.0810810810811" width="27.675675675675677" height="27.675675675675677" style="fill:rgb(59,104,171);shape-rendering:crispEdges;"/>
  <rect x="442.81081081081084" y="249.0810810810811" width="27.675675675675677" height="27.675675675675677" style="fill:rgb(59,104,171);shape-rendering:crispEdges;"/>
  <rect x="525.8378378378379" y="249.0810810810811" width="27.675675675675677" height="27.675675675675677" style="fill:rgb(59,104,171);shape-rendering:crispEdges;"/>
  <rect x="553.5135135135135" y="249.0810810810811" width="27.675675675675677" height="27.675675675675677" style="fill:rgb(59,104,171);shape-rendering:crispEdges;"/>
  <rect x="719.5675675675676" y="249.0810810810811" width="27.675675675675677" height="27.675675675675677" style="fill:rgb(59,104,171);shape-rendering:crispEdges;"/>
  <rect x="885.6216216216217" y="249.0810810810811" width="27.675675675675677" height="27.675675675675677" style="fill:rgb(59,104,171);shape-rendering:crispEdges;"/>
  <rect x="110.70270270270271" y="276.7567567567568" width="27.675675675675677" height="27.675675675675677" style="fill:rgb(59,104,171);shape-rendering:crispEdges;"/>
  <rect x="138.3783783783784" y="276.7567567567568" width="27.675675675675677" height="27.675675675675677" style="fill:rgb(59,104,171);shape-rendering:crispEdges;"/>
  <rect x="166.05405405405406" y="276.7567567567568" width="27.675675675675677" height="27.675675675675677" style="fill:rgb(59,104,171);shape-rendering:crispEdges;"/>
  <rect x="193.72972972972974" y="276.7567567567568" width="27.675675675675677" height="27.675675675675677" style="fill:rgb(59,104,171);shape-rendering:crispEdges;"/>
  <rect x="221.40540540540542" y="276.7567567567568" width="27.675675675675677" height="27.675675675675677" style="fill:rgb(59,104,171);shape-rendering:crispEdges;"/>
  <rect x="249.0810810810811" y="276.7567567567568" width="27.675675675675677" height="27.675675675675677" style="fill:rgb(59,104,171);shape-rendering:crispEdges;"/>
  <rect x="276.7567567567568" y="276.7567567567568" width="27.675675675675677" height="27.675675675675677" style="fill:rgb(59,104,171);shape-rendering:crispEdges;"/>
  <rect x="332.1081081081081" y="276.7567567567568" width="27.675675675675677" height="27.675675675675677" style="fill:rgb(59,104,171);shape-rendering:crispEdges;"/>
  <rect x="387.4594594594595" y="276.7567567567568" width="27.675675675675677" height="27.675675675675677" style="fill:rgb(59,104,171);shape-rendering:crispEdges;"/>
  <rect x="442.81081081081084" y="276.7567567567568" width="27.675675675675677" height="27.675675675675677" style="fill:rgb(59,104,171);shape-rendering:crispEdges;"/>
  <rect x="498.1621621621622" y="276.7567567567568" width="27.675675675675677" height="27.675675675675677" style="fill:rgb(59,104,171);shape-rendering:crispEdges;"/>
  <rect x="553.5135135135135" y="276.7567567567568" width="27.675675675675677" height="27.675675675675677" style="fill:rgb(59,104,171);shape-rendering:crispEdges;"/>
  <rect x="608.8648648648649" y="276.7567567567568" width="27.675675675675677" height="27.675675675675677" style="fill:rgb(59,104,171);shape-rendering:crispEdges;"/>
  <rect x="664.2162162162163" y="276.7567567567568" width="27.675675675675677" height="27.675675675675677" style="fill:rgb(59,104,171);shape-rendering:crispEdges;"/>
  <rect x="719.5675675675676" y="276.7567567567568" width="27.675675675675677" height="27.675675675675677" style="fill:rgb(59,104,171);shape-rendering:crispEdges;"/>
  <rect x="747.2432432432433" y="276.7567567567568" width="27.675675675675677" height="27.675675675675677" style="fill:rgb(59,104,171);shape-rendering:crispEdges;"/>
  <rect x="774.918918918919" y="276.7567567567568" width="27.675675675675677" height="27.675675675675677" style="fill:rgb(59,104,171);shape-rendering:crispEdges;"/>
  <rect x="802.5945945945946" y="276.7567567567568" width="27.675675675675677" height="27.675675675675677" style="fill:rgb(59,104,171);shape-rendering:crispEdges;"/>
  <rect x="830.2702702702703" y="276.7567567567568" width="27.675675675675677" height="27.675675675675677" style="fill:rgb(59,104,171);shape-rendering:crispEdges;"/>
  <rect x="857.945945945946" y="276.7567567567568" width="27.675675675675677" height="27.675675675675677" style="fill:rgb(59,104,171);shape-rendering:crispEdges;"/>
  <rect x="885.6216216216217" y="276.7567567567568" width="27.675675675675677" height="27.675675675675677" style="fill:rgb(59,104,171);shape-rendering:crispEdges;"/>
  <rect x="332.1081081081081" y="304.43243243243245" width="27.675675675675677" height="27.675675675675677" style="fill:rgb(59,104,171);shape-rendering:crispEdges;"/>
  <rect x="387.4594594594595" y="304.43243243243245" width="27.675675675675677" height="27.675675675675677" style="fill:rgb(59,104,171);shape-rendering:crispEdges;"/>
  <rect x="581.1891891891892" y="304.43243243243245" width="27.675675675675677" height="27.675675675675677" style="fill:rgb(59,104,171);shape-rendering:crispEdges;"/>
  <rect x="664.2162162162163" y="304.43243243243245" width="27.675675675675677" height="27.675675675675677" style="fill:rgb(59,104,171);shape-rendering:crispEdges;"/>
  <rect x="110.70270270270271" y="332.1081081081081" width="27.675675675675677" height="27.675675675675677" style="fill:rgb(59,104,171);shape-rendering:crispEdges;"/>
  <rect x="193.72972972972974" y="332.1081081081081" width="27.675675675675677" height="27.675675675675677" style="fill:rgb(59,104,171);shape-rendering:crispEdges;"/>
  <rect x="221.40540540540542" y="332.1081081081081" width="27.675675675675677" height="27.675675675675677" style="fill:rgb(59,104,171);shape-rendering:crispEdges;"/>
  <rect x="249.0810810810811" y="332.1081081081081" width="27.675675675675677" height="27.675675675675677" style="fill:rgb(59,104,171);shape-rendering:crispEdges;"/>
  <rect x="276.7567567567568" y="332.1081081081081" width="27.675675675675677" height="27.675675675675677" style="fill:rgb(59,104,171);shape-rendering:crispEdges;"/>
  <rect x="304.43243243243245" y="332.1081081081081" width="27.675675675675677" height="27.675675675675677" style="fill:rgb(59,104,171);shape-rendering:crispEdges;"/>
  <rect x="332.1081081081081" y="332.1081081081081" width="27.675675675675677" height="27.675675675675677" style="fill:rgb(59,104,171);shape-rendering:crispEdges;"/>
  <rect x="359.7837837837838" y="332.1081081081081" width="27.675675675675677" height="27.675675675675677" style="fill:rgb(59,104,171);shape-rendering:crispEdges;"/>
  <rect x="387.4594594594595" y="332.1081081081081" width="27.675675675675677" height="27.675675675675677" style="fill:rgb(59,104,171);shape-rendering:crispEdges;"/>
  <rect x="498.1621621621622" y="332.1081081081081" width="27.675675675675677" height="27.675675675675677" style="fill:rgb(59,104,171);shape-rendering:crispEdges;"/>
  <rect x="553.5135135135135" y="332.1081081081081" width="27.675675675675677" height="27.675675675675677" style="fill:rgb(59,104,171);shape-rendering:crispEdges;"/>
  <rect x="581.1891891891892" y="332.1081081081081" width="27.675675675675677" height="27.675675675675677" style="fill:rgb(59,104,171);shape-rendering:crispEdges;"/>
  <rect x="608.8648648648649" y="332.1081081081081" width="27.675675675675677" height="27.675675675675677" style="fill:rgb(59,104,171);shape-rendering:crispEdges;"/>
  <rect x="691.8918918918919" y="332.1081081081081" width="27.675675675675677" height="27.675675675675677" style="fill:rgb(59,104,171);shape-rendering:crispEdges;"/>
  <rect x="719.5675675675676" y="332.1081081081081" width="27.675675675675677" height="27.675675675675677" style="fill:rgb(59,104,171);shape-rendering:crispEdges;"/>
  <rect x="774.918918918919" y="332.1081081081081" width="27.675675675675677" height="27.675675675675677" style="fill:rgb(59,104,171);shape-rendering:crispEdges;"/>
  <rect x="885.6216216216217" y="332.1081081081081" width="27.675675675675677" height="27.675675675675677" style="fill:rgb(59,104,171);shape-rendering:crispEdges;"/>
  <rect x="221.40540540540542" y="359.7837837837838" width="27.675675675675677" height="27.675675675675677" style="fill:rgb(59,104,171);shape-rendering:crispEdges;"/>
  <rect x="249.0810810810811" y="359.7837837837838" width="27.675675675675677" height="27.675675675675677" style="fill:rgb(59,104,171);shape-rendering:crispEdges;"/>
  <rect x="304.43243243243245" y="359.7837837837838" width="27.675675675675677" height="27.675675675675677" style="fill:rgb(59,104,171);shape-rendering:crispEdges;"/>
  <rect x="332.1081081081081" y="359.7837837837838" width="27.675675675675677" height="27.675675675675677" style="fill:rgb(59,104,171);shape-rendering:crispEdges;"/>
  <rect x="359.7837837837838" y="359.7837837837838" width="27.675675675675677" height="27.675675675675677" style="fill:rgb(59,104,171);shape-rendering:crispEdges;"/>
  <rect x="387.4594594594595" y="359.7837837837838" width="27.675675675675677" height="27.675675675675677" style="fill:rgb(59,104,171);shape-rendering:crispEdges;"/>
  <rect x="415.13513513513516" y="359.7837837837838" width="27.675675675675677" height="27.675675675675677" style="fill:rgb(59,104,171);shape-rendering:crispEdges;"/>
  <rect x="442.81081081081084" y="359.7837837837838" width="27.675675675675677" height="27.675675675675677" style="fill:rgb(59,104,171);shape-rendering:crispEdges;"/>
  <rect x="470.4864864864865" y="359.7837837837838" width="27.675675675675677" height="27.675675675675677" style="fill:rgb(59,104,171);shape-rendering:crispEdges;"/>
  <rect x="525.8378378378379" y="359.7837837837838" width="27.675675675675677" height="27.675675675675677" style="fill:rgb(59,104,171);shape-rendering:crispEdges;"/>
  <rect x="553.5135135135135" y="359.7837837837838" width="27.675675675675677" height="27.675675675675677" style="fill:rgb(59,104,171);shape-rendering:crispEdges;"/>
  <rect x="581.1891891891892" y="359.7837837837838" width="27.675675675675677" height="27.675675675675677" style="fill:rgb(59,104,171);shape-rendering:crispEdges;"/>
  <rect x="608.8648648648649" y="359.7837837837838" width="27.675675675675677" height="27.675675675675677" style="fill:rgb(59,104,171);shape-rendering:crispEdges;"/>
  <rect x="691.8918918918919" y="359.7837837837838" width="27.675675675675677" height="27.675675675675677" style="fill:rgb(59,104,171);shape-rendering:crispEdges;"/>
  <rect x="719.5675675675676" y="359.7837837837838" width="27.675675675675677" height="27.675675675675677" style="fill:rgb(59,104,171);shape-rendering:crispEdges;"/>
  <rect x="774.918918918919" y="359.7837837837838" width="27.675675675675677" height="27.675675675675677" style="fill:rgb(59,104,171);shape-rendering:crispEdges;"/>
  <rect x="802.5945945945946" y="359.7837837837838" width="27.675675675675677" height="27.675675675675677" style="fill:rgb(59,104,171);shape-rendering:crispEdges;"/>
  <rect x="857.945945945946" y="359.7837837837838" width="27.675675675675677" height="27.675675675675677" style="fill:rgb(59,104,171);shape-rendering:crispEdges;"/>
  <rect x="110.70270270270271" y="387.4594594594595" width="27.675675675675677" height="27.675675675675677" style="fill:rgb(59,104,171);shape-rendering:crispEdges;"/>
  <rect x="221.40540540540542" y="387.4594594594595" width="27.675675675675677" height="27.675675675675677" style="fill:rgb(59,104,171);shape-rendering:crispEdges;"/>
  <rect x="249.0810810810811" y="387.4594594594595" width="27.675675675675677" height="27.675675675675677" style="fill:rgb(59,104,171);shape-rendering:crispEdges;"/>
  <rect x="276.7567567567568" y="387.4594594594595" width="27.675675675675677" height="27.675675675675677" style="fill:rgb(59,104,171);shape-rendering:crispEdges;"/>
  <rect x="332.1081081081081" y="387.4594594594595" width="27.675675675675677" height="27.675675675675677" style="fill:rgb(59,104,171);shape-rendering:crispEdges;"/>
  <rect x="359.7837837837838" y="387.4594594594595" width="27.675675675675677" height="27.675675675675677" style="fill:rgb(59,104,171);shape-rendering:crispEdges;"/>
  <rect x="387.4594594594595" y="387.4594594594595" width="27.675675675675677" height="27.675675675675677" style="fill:rgb(59,104,171);shape-rendering:crispEdges;"/>
  <rect x="470.4864864864865" y="387.4594594594595" width="27.675675675675677" height="27.675675675675677" style="fill:rgb(59,104,171);shape-rendering:crispEdges;"/>
  <rect x="525.8378378378379" y="387.4594594594595" width="27.675675675675677" height="27.675675675675677" style="fill:rgb(59,104,171);shape-rendering:crispEdges;"/>
  <rect x="581.1891891891892" y="387.4594594594595" width="27.675675675675677" height="27.675675675675677" style="fill:rgb(59,104,171);shape-rendering:crispEdges;"/>
  <rect x="691.8918918918919" y="387.4594594594595" width="27.675675675675677" height="27.675675675675677" style="fill:rgb(59,104,171);shape-rendering:crispEdges;"/>
  <rect x="747.2432432432433" y="387.4594594594595" width="27.675675675675677" height="27.675675675675677" style="fill:rgb(59,104,171);shape-rendering:crispEdges;"/>
  <rect x="802.5945945945946" y="387.4594594594595" width="27.675675675675677" height="27.675675675675677" style="fill:rgb(59,104,171);shape-rendering:crispEdges;"/>
  <rect x="857.945945945946" y="387.4594594594595" width="27.675675675675677" height="27.675675675675677" style="fill:rgb(59,104,171);shape-rendering:crispEdges;"/>
  <rect x="885.6216216216217" y="387.4594594594595" width="27.675675675675677" height="27.675675675675677" style="fill:rgb(59,104,171);shape-rendering:crispEdges;"/>
  <rect x="110.70270270270271" y="415.13513513513516" width="27.675675675675677" height="27.675675675675677" style="fill:rgb(59,104,171);shape-rendering:crispEdges;"/>
  <rect x="138.3783783783784" y="415.13513513513516" width="27.675675675675677" height="27.675675675675677" style="fill:rgb(59,104,171);shape-rendering:crispEdges;"/>
  <rect x="221.40540540540542" y="415.13513513513516" width="27.675675675675677" height="27.675675675675677" style="fill:rgb(59,104,171);shape-rendering:crispEdges;"/>
  <rect x="249.0810810810811" y="415.13513513513516" width="27.675675675675677" height="27.675675675675677" style="fill:rgb(59,104,171);shape-rendering:crispEdges;"/>
  <rect x="332.1081081081081" y="415.13513513513516" width="27.675675675675677" height="27.675675675675677" style="fill:rgb(59,104,171);shape-rendering:crispEdges;"/>
  <rect x="359.7837837837838" y="415.13513513513516" width="27.675675675675677" height="27.675675675675677" style="fill:rgb(59,104,171);shape-rendering:crispEdges;"/>
  <rect x="387.4594594594595" y="415.13513513513516" width="27.675675675675677" height="27.675675675675677" style="fill:rgb(59,104,171);shape-rendering:crispEdges;"/>
  <rect x="470.4864864864865" y="415.13513513513516" width="27.675675675675677" height="27.675675675675677" style="fill:rgb(59,104,171);shape-rendering:crispEdges;"/>
  <rect x="525.8378378378379" y="415.13513513513516" width="27.675675675675677" height="27.675675675675677" style="fill:rgb(59,104,171);shape-rendering:crispEdges;"/>
  <rect x="608.8648648648649" y="415.13513513513516" width="27.675675675675677" height="27.675675675675677" style="fill:rgb(59,104,171);shape-rendering:crispEdges;"/>
  <rect x="664.2162162162163" y="415.13513513513516" width="27.675675675675677" height="27.675675675675677" style="fill:rgb(59,104,171);shape-rendering:crispEdges;"/>
  <rect x="774.918918918919" y="415.13513513513516" width="27.675675675675677" height="27.675675675675677" style="fill:rgb(59,104,171);shape-rendering:crispEdges;"/>
  <rect x="802.5945945945946" y="415.13513513513516" width="27.675675675675677" height="27.675675675675677" style="fill:rgb(59,104,171);shape-rendering:crispEdges;"/>
  <rect x="885.6216216216217" y="415.13513513513516" width="27.675675675675677" height="27.675675675675677" style="fill:rgb(59,104,171);shape-rendering:crispEdges;"/>
  <rect x="110.70270270270271" y="442.81081081081084" width="27.675675675675677" height="27.675675675675677" style="fill:rgb(59,104,171);shape-rendering:crispEdges;"/>
  <rect x="138.3783783783784" y="442.81081081081084" width="27.675675675675677" height="27.675675675675677" style="fill:rgb(59,104,171);shape-rendering:crispEdges;"/>
  <rect x="166.05405405405406" y="442.81081081081084" width="27.675675675675677" height="27.675675675675677" style="fill:rgb(59,104,171);shape-rendering:crispEdges;"/>
  <rect x="193.72972972972974" y="442.81081081081084" width="27.675675675675677" height="27.675675675675677" style="fill:rgb(59,104,171);shape-rendering:crispEdges;"/>
  <rect x="221.40540540540542" y="442.81081081081084" width="27.675675675675677" height="27.675675675675677" style="fill:rgb(59,104,171);shape-rendering:crispEdges;"/>
  <rect x="249.0810810810811" y="442.81081081081084" width="27.675675675675677" height="27.675675675675677" style="fill:rgb(59,104,171);shape-rendering:crispEdges;"/>
  <rect x="276.7567567567568" y="442.81081081081084" width="27.675675675675677" height="27.675675675675677" style="fill:rgb(59,104,171);shape-rendering:crispEdges;"/>
  <rect x="332.1081081081081" y="442.81081081081084" width="27.675675675675677" height="27.675675675675677" style="fill:rgb(59,104,171);shape-rendering:crispEdges;"/>
  <rect x="442.81081081081084" y="442.81081081081084" width="27.675675675675677" height="27.675675675675677" style="fill:rgb(59,104,171);shape-rendering:crispEdges;"/>
  <rect x="470.4864864864865" y="442.81081081081084" width="27.675675675675677" height="27.675675675675677" style="fill:rgb(59,104,171);shape-rendering:crispEdges;"/>
  <rect x="498.1621621621622" y="442.81081081081084" width="27.675675675675677" height="27.675675675675677" style="fill:rgb(59,104,171);shape-rendering:crispEdges;"/>
  <rect x="525.8378378378379" y="442.81081081081084" width="27.675675675675677" height="27.675675675675677" style="fill:rgb(59,104,171);shape-rendering:crispEdges;"/>
  <rect x="553.5135135135135" y="442.81081081081084" width="27.675675675675677" height="27.675675675675677" style="fill:rgb(59,104,171);shape-rendering:crispEdges;"/>
  <rect x="636.5405405405406" y="442.81081081081084" width="27.675675675675677" height="27.675675675675677" style="fill:rgb(59,104,171);shape-rendering:crispEdges;"/>
  <rect x="664.2162162162163" y="442.81081081081084" width="27.675675675675677" height="27.675675675675677" style="fill:rgb(59,104,171);shape-rendering:crispEdges;"/>
  <rect x="691.8918918918919" y="442.81081081081084" width="27.675675675675677" height="27.675675675675677" style="fill:rgb(59,104,171);shape-rendering:crispEdges;"/>
  <rect x="719.5675675675676" y="442.81081081081084" width="27.675675675675677" height="27.675675675675677" style="fill:rgb(59,104,171);shape-rendering:crispEdges;"/>
  <rect x="802.5945945945946" y="442.81081081081084" width="27.675675675675677" height="27.675675675675677" style="fill:rgb(59,104,171);shape-rendering:crispEdges;"/>
  <rect x="885.6216216216217" y="442.81081081081084" width="27.675675675675677" height="27.675675675675677" style="fill:rgb(59,104,171);shape-rendering:crispEdges;"/>
  <rect x="166.05405405405406" y="470.4864864864865" width="27.675675675675677" height="27.675675675675677" style="fill:rgb(59,104,171);shape-rendering:crispEdges;"/>
  <rect x="221.40540540540542" y="470.4864864864865" width="27.675675675675677" height="27.675675675675677" style="fill:rgb(59,104,171);shape-rendering:crispEdges;"/>
  <rect x="249.0810810810811" y="470.4864864864865" width="27.675675675675677" height="27.675675675675677" style="fill:rgb(59,104,171);shape-rendering:crispEdges;"/>
  <rect x="332.1081081081081" y="470.4864864864865" width="27.675675675675677" height="27.675675675675677" style="fill:rgb(59,104,171);shape-rendering:crispEdges;"/>
  <rect x="387.4594594594595" y="470.4864864864865" width="27.675675675675677" height="27.675675675675677" style="fill:rgb(59,104,171);shape-rendering:crispEdges;"/>
  <rect x="415.13513513513516" y="470.4864864864865" width="27.675675675675677" height="27.675675675675677" style="fill:rgb(59,104,171);shape-rendering:crispEdges;"/>
  <rect x="442.81081081081084" y="470.4864864864865" width="27.675675675675677" height="27.675675675675677" style="fill:rgb(59,104,171);shape-rendering:crispEdges;"/>
  <rect x="470.4864864864865" y="470.4864864864865" width="27.675675675675677" height="27.675675675675677" style="fill:rgb(59,104,171);shape-rendering:crispEdges;"/>
  <rect x="553.5135135135135" y="470.4864864864865" width="27.675675675675677" height="27.675675675675677" style="fill:rgb(59,104,171);shape-rendering:crispEdges;"/>
  <rect x="608.8648648648649" y="470.4864864864865" width="27.675675675675677" height="27.675675675675677" style="fill:rgb(59,104,171);shape-rendering:crispEdges;"/>
  <rect x="636.5405405405406" y="470.4864864864865" width="27.675675675675677" height="27.675675675675677" style="fill:rgb(59,104,171);shape-rendering:crispEdges;"/>
  <rect x="664.2162162162163" y="470.4864864864865" width="27.675675675675677" height="27.675675675675677" style="fill:rgb(59,104,171);shape-rendering:crispEdges;"/>
  <rect x="691.8918918918919" y="470.4864864864865" width="27.675675675675677" height="27.675675675675677" style="fill:rgb(59,104,171);shape-rendering:crispEdges;"/>
  <rect x="774.918918918919" y="470.4864864864865" width="27.675675675675677" height="27.675675675675677" style="fill:rgb(59,104,171);shape-rendering:crispEdges;"/>
  <rect x="885.6216216216217" y="470.4864864864865" width="27.675675675675677" height="27.675675675675677" style="fill:rgb(59,104,171);shape-rendering:crispEdges;"/>
  <rect x="110.70270270270271" y="498.1621621621622" width="27.675675675675677" height="27.675675675675677" style="fill:rgb(59,104,171);shape-rendering:crispEdges;"/>
  <rect x="193.72972972972974" y="498.1621621621622" width="27.675675675675677" height="27.675675675675677" style="fill:rgb(59,104,171);shape-rendering:crispEdges;"/>
  <rect x="221.40540540540542" y="498.1621621621622" width="27.675675675675677" height="27.675675675675677" style="fill:rgb(59,104,171);shape-rendering:crispEdges;"/>
  <rect x="249.0810810810811" y="498.1621621621622" width="27.675675675675677" height="27.675675675675677" style="fill:rgb(59,104,171);shape-rendering:crispEdges;"/>
  <rect x="276.7567567567568" y="498.1621621621622" width="27.675675675675677" height="27.675675675675677" style="fill:rgb(59,104,171);shape-rendering:crispEdges;"/>
  <rect x="304.43243243243245" y="498.1621621621622" width="27.675675675675677" height="27.675675675675677" style="fill:rgb(59,104,171);shape-rendering:crispEdges;"/>
  <rect x="332.1081081081081" y="498.1621621621622" width="27.675675675675677" height="27.675675675675677" style="fill:rgb(59,104,171);shape-rendering:crispEdges;"/>
  <rect x="387.4594594594595" y="498.1621621621622" width="27.675675675675677" height="27.675675675675677" style="fill:rgb(59,104,171);shape-rendering:crispEdges;"/>
  <rect x="470.4864864864865" y="498.1621621621622" width="27.675675675675677" height="27.675675675675677" style="fill:rgb(59,104,171);shape-rendering:crispEdges;"/>
  <rect x="525.8378378378379" y="498.1621621621622" width="27.675675675675677" height="27.675675675675677" style="fill:rgb(59,104,171);shape-rendering:crispEdges;"/>
  <rect x="553.5135135135135" y="498.1621621621622" width="27.675675675675677" height="27.675675675675677" style="fill:rgb(59,104,171);shape-rendering:crispEdges;"/>
  <rect x="608.8648648648649" y="498.1621621621622" width="27.675675675675677" height="27.675675675675677" style="fill:rgb(59,104,171);shape-rendering:crispEdges;"/>
  <rect x="691.8918918918919" y="498.1621621621622" width="27.675675675675677" height="27.675675675675677" style="fill:rgb(59,104,171);shape-rendering:crispEdges;"/>
  <rect x="747.2432432432433" y="498.1621621621622" width="27.675675675675677" height="27.675675675675677" style="fill:rgb(59,104,171);shape-rendering:crispEdges;"/>
  <rect x="774.918918918919" y="498.1621621621622" width="27.675675675675677" height="27.675675675675677" style="fill:rgb(59,104,171);shape-rendering:crispEdges;"/>
  <rect x="885.6216216216217" y="498.1621621621622" width="27.675675675675677" height="27.675675675675677" style="fill:rgb(59,104,171);shape-rendering:crispEdges;"/>
  <rect x="193.72972972972974" y="525.8378378378379" width="27.675675675675677" height="27.675675675675677" style="fill:rgb(59,104,171);shape-rendering:crispEdges;"/>
  <rect x="221.40540540540542" y="525.8378378378379" width="27.675675675675677" height="27.675675675675677" style="fill:rgb(59,104,171);shape-rendering:crispEdges;"/>
  <rect x="304.43243243243245" y="525.8378378378379" width="27.675675675675677" height="27.675675675675677" style="fill:rgb(59,104,171);shape-rendering:crispEdges;"/>
  <rect x="359.7837837837838" y="525.8378378378379" width="27.675675675675677" height="27.675675675675677" style="fill:rgb(59,104,171);shape-rendering:crispEdges;"/>
  <rect x="387.4594594594595" y="525.8378378378379" width="27.675675675675677" height="27.675675675675677" style="fill:rgb(59,104,171);shape-rendering:crispEdges;"/>
  <rect x="442.81081081081084" y="525.8378378378379" width="27.675675675675677" height="27.675675675675677" style="fill:rgb(59,104,171);shape-rendering:crispEdges;"/>
  <rect x="470.4864864864865" y="525.8378378378379" width="27.675675675675677" height="27.675675675675677" style="fill:rgb(59,104,171);shape-rendering:crispEdges;"/>
  <rect x="498.1621621621622" y="525.8378378378379" width="27.675675675675677" height="27.675675675675677" style="fill:rgb(59,104,171);shape-rendering:crispEdges;"/>
  <rect x="525.8378378378379" y="525.8378378378379" width="27.675675675675677" height="27.675675675675677" style="fill:rgb(59,104,171);shape-rendering:crispEdges;"/>
  <rect x="581.1891891891892" y="525.8378378378379" width="27.675675675675677" height="27.675675675675677" style="fill:rgb(59,104,171);shape-rendering:crispEdges;"/>
  <rect x="608.8648648648649" y="525.8378378378379" width="27.675675675675677" height="27.675675675675677" style="fill:rgb(59,104,171);shape-rendering:crispEdges;"/>
  <rect x="691.8918918918919" y="525.8378378378379" width="27.675675675675677" height="27.675675675675677" style="fill:rgb(59,104,171);shape-rendering:crispEdges;"/>
  <rect x="719.5675675675676" y="525.8378378378379" width="27.675675675675677" height="27.675675675675677" style="fill:rgb(59,104,171);shape-rendering:crispEdges;"/>
  <rect x="747.2432432432433" y="525.8378378378379" width="27.675675675675677" height="27.675675675675677" style="fill:rgb(59,104,171);shape-rendering:crispEdges;"/>
  <rect x="802.5945945945946" y="525.8378378378379" width="27.675675675675677" height="27.675675675675677" style="fill:rgb(59,104,171);shape-rendering:crispEdges;"/>
  <rect x="830.2702702702703" y="525.8378378378379" width="27.675675675675677" height="27.675675675675677" style="fill:rgb(59,104,171);shape-rendering:crispEdges;"/>
  <rect x="885.6216216216217" y="525.8378378378379" width="27.675675675675677" height="27.675675675675677" style="fill:rgb(59,104,171);shape-rendering:crispEdges;"/>
  <rect x="138.3783783783784" y="553.5135135135135" width="27.675675675675677" height="27.675675675675677" style="fill:rgb(59,104,171);shape-rendering:crispEdges;"/>
  <rect x="166.05405405405406" y="553.5135135135135" width="27.675675675675677" height="27.675675675675677" style="fill:rgb(59,104,171);shape-rendering:crispEdges;"/>
  <rect x="221.40540540540542" y="553.5135135135135" width="27.675675675675677" height="27.675675675675677" style="fill:rgb(59,104,171);shape-rendering:crispEdges;"/>
  <rect x="276.7567567567568" y="553.5135135135135" width="27.675675675675677" height="27.675675675675677" style="fill:rgb(59,104,171);shape-rendering:crispEdges;"/>
  <rect x="332.1081081081081" y="553.5135135135135" width="27.675675675675677" height="27.675675675675677" style="fill:rgb(59,104,171);shape-rendering:crispEdges;"/>
  <rect x="359.7837837837838" y="553.5135135135135" width="27.675675675675677" height="27.675675675675677" style="fill:rgb(59,104,171);shape-rendering:crispEdges;"/>
  <rect x="387.4594594594595" y="553.5135135135135" width="27.675675675675677" height="27.675675675675677" style="fill:rgb(59,104,171);shape-rendering:crispEdges;"/>
  <rect x="470.4864864864865" y="553.5135135135135" width="27.675675675675677" height="27.675675675675677" style="fill:rgb(59,104,171);shape-rendering:crispEdges;"/>
  <rect x="581.1891891891892" y="553.5135135135135" width="27.675675675675677" height="27.675675675675677" style="fill:rgb(59,104,171);shape-rendering:crispEdges;"/>
  <rect x="608.8648648648649" y="553.5135135135135" width="27.675675675675677" height="27.675675675675677" style="fill:rgb(59,104,171);shape-rendering:crispEdges;"/>
  <rect x="664.2162162162163" y="553.5135135135135" width="27.675675675675677" height="27.675675675675677" style="fill:rgb(59,104,171);shape-rendering:crispEdges;"/>
  <rect x="691.8918918918919" y="553.5135135135135" width="27.675675675675677" height="27.675675675675677" style="fill:rgb(59,104,171);shape-rendering:crispEdges;"/>
  <rect x="802.5945945945946" y="553.5135135135135" width="27.675675675675677" height="27.675675675675677" style="fill:rgb(59,104,171);shape-rendering:crispEdges;"/>
  <rect x="830.2702702702703" y="553.5135135135135" width="27.675675675675677" height="27.675675675675677" style="fill:rgb(59,104,171);shape-rendering:crispEdges;"/>
  <rect x="166.05405405405406" y="581.1891891891892" width="27.675675675675677" height="27.675675675675677" style="fill:rgb(59,104,171);shape-rendering:crispEdges;"/>
  <rect x="304.43243243243245" y="581.1891891891892" width="27.675675675675677" height="27.675675675675677" style="fill:rgb(59,104,171);shape-rendering:crispEdges;"/>
  <rect x="332.1081081081081" y="581.1891891891892" width="27.675675675675677" height="27.675675675675677" style="fill:rgb(59,104,171);shape-rendering:crispEdges;"/>
  <rect x="415.13513513513516" y="581.1891891891892" width="27.675675675675677" height="27.675675675675677" style="fill:rgb(59,104,171);shape-rendering:crispEdges;"/>
  <rect x="442.81081081081084" y="581.1891891891892" width="27.675675675675677" height="27.675675675675677" style="fill:rgb(59,104,171);shape-rendering:crispEdges;"/>
  <rect x="498.1621621621622" y="581.1891891891892" width="27.675675675675677" height="27.675675675675677" style="fill:rgb(59,104,171);shape-rendering:crispEdges;"/>
  <rect x="525.8378378378379" y="581.1891891891892" width="27.675675675675677" height="27.675675675675677" style="fill:rgb(59,104,171);shape-rendering:crispEdges;"/>
  <rect x="553.5135135135135" y="581.1891891891892" width="27.675675675675677" height="27.675675675675677" style="fill:rgb(59,104,171);shape-rendering:crispEdges;"/>
  <rect x="636.5405405405406" y="581.1891891891892" width="27.675675675675677" height="27.675675675675677" style="fill:rgb(59,104,171);shape-rendering:crispEdges;"/>
  <rect x="664.2162162162163" y="581.1891891891892" width="27.675675675675677" height="27.675675675675677" style="fill:rgb(59,104,171);shape-rendering:crispEdges;"/>
  <rect x="691.8918918918919" y="581.1891891891892" width="27.675675675675677" height="27.675675675675677" style="fill:rgb(59,104,171);shape-rendering:crispEdges;"/>
  <rect x="719.5675675675676" y="581.1891891891892" width="27.675675675675677" height="27.675675675675677" style="fill:rgb(59,104,171);shape-rendering:crispEdges;"/>
  <rect x="747.2432432432433" y="581.1891891891892" width="27.675675675675677" height="27.675675675675677" style="fill:rgb(59,104,171);shape-rendering:crispEdges;"/>
  <rect x="774.918918918919" y="581.1891891891892" width="27.675675675675677" height="27.675675675675677" style="fill:rgb(59,104,171);shape-rendering:crispEdges;"/>
  <rect x="830.2702702702703" y="581.1891891891892" width="27.675675675675677" height="27.675675675675677" style="fill:rgb(59,104,171);shape-rendering:crispEdges;"/>
  <rect x="857.945945945946" y="581.1891891891892" width="27.675675675675677" height="27.675675675675677" style="fill:rgb(59,104,171);shape-rendering:crispEdges;"/>
  <rect x="885.6216216216217" y="581.1891891891892" width="27.675675675675677" height="27.675675675675677" style="fill:rgb(59,104,171);shape-rendering:crispEdges;"/>
  <rect x="110.70270270270271" y="608.8648648648649" width="27.675675675675677" height="27.675675675675677" style="fill:rgb(59,104,171);shape-rendering:crispEdges;"/>
  <rect x="138.3783783783784" y="608.8648648648649" width="27.675675675675677" height="27.675675675675677" style="fill:rgb(59,104,171);shape-rendering:crispEdges;"/>
  <rect x="166.05405405405406" y="608.8648648648649" width="27.675675675675677" height="27.675675675675677" style="fill:rgb(59,104,171);shape-rendering:crispEdges;"/>
  <rect x="193.72972972972974" y="608.8648648648649" width="27.675675675675677" height="27.675675675675677" style="fill:rgb(59,104,171);shape-rendering:crispEdges;"/>
  <rect x="276.7567567567568" y="608.8648648648649" width="27.675675675675677" height="27.675675675675677" style="fill:rgb(59,104,171);shape-rendering:crispEdges;"/>
  <rect x="304.43243243243245" y="608.8648648648649" width="27.675675675675677" height="27.675675675675677" style="fill:rgb(59,104,171);shape-rendering:crispEdges;"/>
  <rect x="359.7837837837838" y="608.8648648648649" width="27.675675675675677" height="27.675675675675677" style="fill:rgb(59,104,171);shape-rendering:crispEdges;"/>
  <rect x="415.13513513513516" y="608.8648648648649" width="27.675675675675677" height="27.675675675675677" style="fill:rgb(59,104,171);shape-rendering:crispEdges;"/>
  <rect x="498.1621621621622" y="608.8648648648649" width="27.675675675675677" height="27.675675675675677" style="fill:rgb(59,104,171);shape-rendering:crispEdges;"/>
  <rect x="691.8918918918919" y="608.8648648648649" width="27.675675675675677" height="27.675675675675677" style="fill:rgb(59,104,171);shape-rendering:crispEdges;"/>
  <rect x="747.2432432432433" y="608.8648648648649" width="27.675675675675677" height="27.675675675675677" style="fill:rgb(59,104,171);shape-rendering:crispEdges;"/>
  <rect x="802.5945945945946" y="608.8648648648649" width="27.675675675675677" height="27.675675675675677" style="fill:rgb(59,104,171);shape-rendering:crispEdges;"/>
  <rect x="857.945945945946" y="608.8648648648649" width="27.675675675675677" height="27.675675675675677" style="fill:rgb(59,104,171);shape-rendering:crispEdges;"/>
  <rect x="885.6216216216217" y="608.8648648648649" width="27.675675675675677" height="27.675675675675677" style="fill:rgb(59,104,171);shape-rendering:crispEdges;"/>
  <rect x="138.3783783783784" y="636.5405405405406" width="27.675675675675677" height="27.675675675675677" style="fill:rgb(59,104,171);shape-rendering:crispEdges;"/>
  <rect x="166.05405405405406" y="636.5405405405406" width="27.675675675675677" height="27.675675675675677" style="fill:rgb(59,104,171);shape-rendering:crispEdges;"/>
  <rect x="193.72972972972974" y="636.5405405405406" width="27.675675675675677" height="27.675675675675677" style="fill:rgb(59,104,171);shape-rendering:crispEdges;"/>
  <rect x="249.0810810810811" y="636.5405405405406" width="27.675675675675677" height="27.675675675675677" style="fill:rgb(59,104,171);shape-rendering:crispEdges;"/>
  <rect x="304.43243243243245" y="636.5405405405406" width="27.675675675675677" height="27.675675675675677" style="fill:rgb(59,104,171);shape-rendering:crispEdges;"/>
  <rect x="332.1081081081081" y="636.5405405405406" width="27.675675675675677" height="27.675675675675677" style="fill:rgb(59,104,171);shape-rendering:crispEdges;"/>
  <rect x="415.13513513513516" y="636.5405405405406" width="27.675675675675677" height="27.675675675675677" style="fill:rgb(59,104,171);shape-rendering:crispEdges;"/>
  <rect x="442.81081081081084" y="636.5405405405406" width="27.675675675675677" height="27.675675675675677" style="fill:rgb(59,104,171);shape-rendering:crispEdges;"/>
  <rect x="553.5135135135135" y="636.5405405405406" width="27.675675675675677" height="27.675675675675677" style="fill:rgb(59,104,171);shape-rendering:crispEdges;"/>
  <rect x="636.5405405405406" y="636.5405405405406" width="27.675675675675677" height="27.675675675675677" style="fill:rgb(59,104,171);shape-rendering:crispEdges;"/>
  <rect x="664.2162162162163" y="636.5405405405406" width="27.675675675675677" height="27.675675675675677" style="fill:rgb(59,104,171);shape-rendering:crispEdges;"/>
  <rect x="719.5675675675676" y="636.5405405405406" width="27.675675675675677" height="27.675675675675677" style="fill:rgb(59,104,171);shape-rendering:crispEdges;"/>
  <rect x="774.918918918919" y="636.5405405405406" width="27.675675675675677" height="27.675675675675677" style="fill:rgb(59,104,171);shape-rendering:crispEdges;"/>
  <rect x="830.2702702702703" y="636.5405405405406" width="27.675675675675677" height="27.675675675675677" style="fill:rgb(59,104,171);shape-rendering:crispEdges;"/>
  <rect x="138.3783783783784" y="664.2162162162163" width="27.675675675675677" height="27.675675675675677" style="fill:rgb(59,104,171);shape-rendering:crispEdges;"/>
  <rect x="166.05405405405406" y="664.2162162162163" width="27.675675675675677" height="27.675675675675677" style="fill:rgb(59,104,171);shape-rendering:crispEdges;"/>
  <rect x="221.40540540540542" y="664.2162162162163" width="27.675675675675677" height="27.675675675675677" style="fill:rgb(59,104,171);shape-rendering:crispEdges;"/>
  <rect x="249.0810810810811" y="664.2162162162163" width="27.675675675675677" height="27.675675675675677" style="fill:rgb(59,104,171);shape-rendering:crispEdges;"/>
  <rect x="276.7567567567568" y="664.2162162162163" width="27.675675675675677" height="27.675675675675677" style="fill:rgb(59,104,171);shape-rendering:crispEdges;"/>
  <rect x="304.43243243243245" y="664.2162162162163" width="27.675675675675677" height="27.675675675675677" style="fill:rgb(59,104,171);shape-rendering:crispEdges;"/>
  <rect x="359.7837837837838" y="664.2162162162163" width="27.675675675675677" height="27.675675675675677" style="fill:rgb(59,104,171);shape-rendering:crispEdges;"/>
  <rect x="470.4864864864865" y="664.2162162162163" width="27.675675675675677" height="27.675675675675677" style="fill:rgb(59,104,171);shape-rendering:crispEdges;"/>
  <rect x="581.1891891891892" y="664.2162162162163" width="27.675675675675677" height="27.675675675675677" style="fill:rgb(59,104,171);shape-rendering:crispEdges;"/>
  <rect x="664.2162162162163" y="664.2162162162163" width="27.675675675675677" height="27.675675675675677" style="fill:rgb(59,104,171);shape-rendering:crispEdges;"/>
  <rect x="691.8918918918919" y="664.2162162162163" width="27.675675675675677" height="27.675675675675677" style="fill:rgb(59,104,171);shape-rendering:crispEdges;"/>
  <rect x="719.5675675675676" y="664.2162162162163" width="27.675675675675677" height="27.675675675675677" style="fill:rgb(59,104,171);shape-rendering:crispEdges;"/>
  <rect x="747.2432432432433" y="664.2162162162163" width="27.675675675675677" height="27.675675675675677" style="fill:rgb(59,104,171);shape-rendering:crispEdges;"/>
  <rect x="774.918918918919" y="664.2162162162163" width="27.675675675675677" height="27.675675675675677" style="fill:rgb(59,104,171);shape-rendering:crispEdges;"/>
  <rect x="802.5945945945946" y="664.2162162162163" width="27.675675675675677" height="27.675675675675677" style="fill:rgb(59,104,171);shape-rendering:crispEdges;"/>
  <rect x="857.945945945946" y="664.2162162162163" width="27.675675675675677" height="27.675675675675677" style="fill:rgb(59,104,171);shape-rendering:crispEdges;"/>
  <rect x="885.6216216216217" y="664.2162162162163" width="27.675675675675677" height="27.675675675675677" style="fill:rgb(59,104,171);shape-rendering:crispEdges;"/>
  <rect x="332.1081081081081" y="691.8918918918919" width="27.675675675675677" height="27.675675675675677" style="fill:rgb(59,104,171);shape-rendering:crispEdges;"/>
  <rect x="415.13513513513516" y="691.8918918918919" width="27.675675675675677" height="27.675675675675677" style="fill:rgb(59,104,171);shape-rendering:crispEdges;"/>
  <rect x="442.81081081081084" y="691.8918918918919" width="27.675675675675677" height="27.675675675675677" style="fill:rgb(59,104,171);shape-rendering:crispEdges;"/>
  <rect x="498.1621621621622" y="691.8918918918919" width="27.675675675675677" height="27.675675675675677" style="fill:rgb(59,104,171);shape-rendering:crispEdges;"/>
  <rect x="525.8378378378379" y="691.8918918918919" width="27.675675675675677" height="27.675675675675677" style="fill:rgb(59,104,171);shape-rendering:crispEdges;"/>
  <rect x="553.5135135135135" y="691.8918918918919" width="27.675675675675677" height="27.675675675675677" style="fill:rgb(59,104,171);shape-rendering:crispEdges;"/>
  <rect x="636.5405405405406" y="691.8918918918919" width="27.675675675675677" height="27.675675675675677" style="fill:rgb(59,104,171);shape-rendering:crispEdges;"/>
  <rect x="664.2162162162163" y="691.8918918918919" width="27.675675675675677" height="27.675675675675677" style="fill:rgb(59,104,171);shape-rendering:crispEdges;"/>
  <rect x="774.918918918919" y="691.8918918918919" width="27.675675675675677" height="27.675675675675677" style="fill:rgb(59,104,171);shape-rendering:crispEdges;"/>
  <rect x="802.5945945945946" y="691.8918918918919" width="27.675675675675677" height="27.675675675675677" style="fill:rgb(59,104,171);shape-rendering:crispEdges;"/>
  <rect x="885.6216216216217" y="691.8918918918919" width="27.675675675675677" height="27.675675675675677" style="fill:rgb(59,104,171);shape-rendering:crispEdges;"/>
  <rect x="110.70270270270271" y="719.5675675675676" width="27.675675675675677" height="27.675675675675677" style="fill:rgb(59,104,171);shape-rendering:crispEdges;"/>
  <rect x="138.3783783783784" y="719.5675675675676" width="27.675675675675677" height="27.675675675675677" style="fill:rgb(59,104,171);shape-rendering:crispEdges;"/>
  <rect x="166.05405405405406" y="719.5675675675676" width="27.675675675675677" height="27.675675675675677" style="fill:rgb(59,104,171);shape-rendering:crispEdges;"/>
  <rect x="193.72972972972974" y="719.5675675675676" width="27.675675675675677" height="27.675675675675677" style="fill:rgb(59,104,171);shape-rendering:crispEdges;"/>
  <rect x="221.40540540540542" y="719.5675675675676" width="27.675675675675677" height="27.675675675675677" style="fill:rgb(59,104,171);shape-rendering:crispEdges;"/>
  <rect x="249.0810810810811" y="719.5675675675676" width="27.675675675675677" height="27.675675675675677" style="fill:rgb(59,104,171);shape-rendering:crispEdges;"/>
  <rect x="276.7567567567568" y="719.5675675675676" width="27.675675675675677" height="27.675675675675677" style="fill:rgb(59,104,171);shape-rendering:crispEdges;"/>
  <rect x="332.1081081081081" y="719.5675675675676" width="27.675675675675677" height="27.675675675675677" style="fill:rgb(59,104,171);shape-rendering:crispEdges;"/>
  <rect x="359.7837837837838" y="719.5675675675676" width="27.675675675675677" height="27.675675675675677" style="fill:rgb(59,104,171);shape-rendering:crispEdges;"/>
  <rect x="470.4864864864865" y="719.5675675675676" width="27.675675675675677" height="27.675675675675677" style="fill:rgb(59,104,171);shape-rendering:crispEdges;"/>
  <rect x="498.1621621621622" y="719.5675675675676" width="27.675675675675677" height="27.675675675675677" style="fill:rgb(59,104,171);shape-rendering:crispEdges;"/>
  <rect x="581.1891891891892" y="719.5675675675676" width="27.675675675675677" height="27.675675675675677" style="fill:rgb(59,104,171);shape-rendering:crispEdges;"/>
  <rect x="636.5405405405406" y="719.5675675675676" width="27.675675675675677" height="27.675675675675677" style="fill:rgb(59,104,171);shape-rendering:crispEdges;"/>
  <rect x="664.2162162162163" y="719.5675675675676" width="27.675675675675677" height="27.675675675675677" style="fill:rgb(59,104,171);shape-rendering:crispEdges;"/>
  <rect x="719.5675675675676" y="719.5675675675676" width="27.675675675675677" height="27.675675675675677" style="fill:rgb(59,104,171);shape-rendering:crispEdges;"/>
  <rect x="774.918918918919" y="719.5675675675676" width="27.675675675675677" height="27.675675675675677" style="fill:rgb(59,104,171);shape-rendering:crispEdges;"/>
  <rect x="857.945945945946" y="719.5675675675676" width="27.675675675675677" height="27.675675675675677" style="fill:rgb(59,104,171);shape-rendering:crispEdges;"/>
  <rect x="110.70270270270271" y="747.2432432432433" width="27.675675675675677" height="27.675675675675677" style="fill:rgb(59,104,171);shape-rendering:crispEdges;"/>
  <rect x="276.7567567567568" y="747.2432432432433" width="27.675675675675677" height="27.675675675675677" style="fill:rgb(59,104,171);shape-rendering:crispEdges;"/>
  <rect x="332.1081081081081" y="747.2432432432433" width="27.675675675675677" height="27.675675675675677" style="fill:rgb(59,104,171);shape-rendering:crispEdges;"/>
  <rect x="359.7837837837838" y="747.2432432432433" width="27.675675675675677" height="27.675675675675677" style="fill:rgb(59,104,171);shape-rendering:crispEdges;"/>
  <rect x="470.4864864864865" y="747.2432432432433" width="27.675675675675677" height="27.675675675675677" style="fill:rgb(59,104,171);shape-rendering:crispEdges;"/>
  <rect x="498.1621621621622" y="747.2432432432433" width="27.675675675675677" height="27.675675675675677" style="fill:rgb(59,104,171);shape-rendering:crispEdges;"/>
  <rect x="581.1891891891892" y="747.2432432432433" width="27.675675675675677" height="27.675675675675677" style="fill:rgb(59,104,171);shape-rendering:crispEdges;"/>
  <rect x="636.5405405405406" y="747.2432432432433" width="27.675675675675677" height="27.675675675675677" style="fill:rgb(59,104,171);shape-rendering:crispEdges;"/>
  <rect x="664.2162162162163" y="747.2432432432433" width="27.675675675675677" height="27.675675675675677" style="fill:rgb(59,104,171);shape-rendering:crispEdges;"/>
  <rect x="774.918918918919" y="747.2432432432433" width="27.675675675675677" height="27.675675675675677" style="fill:rgb(59,104,171);shape-rendering:crispEdges;"/>
  <rect x="857.945945945946" y="747.2432432432433" width="27.675675675675677" height="27.675675675675677" style="fill:rgb(59,104,171);shape-rendering:crispEdges;"/>
  <rect x="110.70270270270271" y="774.918918918919" width="27.675675675675677" height="27.675675675675677" style="fill:rgb(59,104,171);shape-rendering:crispEdges;"/>
  <rect x="166.05405405405406" y="774.918918918919" width="27.675675675675677" height="27.675675675675677" style="fill:rgb(59,104,171);shape-rendering:crispEdges;"/>
  <rect x="193.72972972972974" y="774.918918918919" width="27.675675675675677" height="27.675675675675677" style="fill:rgb(59,104,171);shape-rendering:crispEdges;"/>
  <rect x="221.40540540540542" y="774.918918918919" width="27.675675675675677" height="27.675675675675677" style="fill:rgb(59,104,171);shape-rendering:crispEdges;"/>
  <rect x="276.7567567567568" y="774.918918918919" width="27.675675675675677" height="27.675675675675677" style="fill:rgb(59,104,171);shape-rendering:crispEdges;"/>
  <rect x="332.1081081081081" y="774.918918918919" width="27.675675675675677" height="27.675675675675677" style="fill:rgb(59,104,171);shape-rendering:crispEdges;"/>
  <rect x="359.7837837837838" y="774.918918918919" width="27.675675675675677" height="27.675675675675677" style="fill:rgb(59,104,171);shape-rendering:crispEdges;"/>
  <rect x="387.4594594594595" y="774.918918918919" width="27.675675675675677" height="27.675675675675677" style="fill:rgb(59,104,171);shape-rendering:crispEdges;"/>
  <rect x="415.13513513513516" y="774.918918918919" width="27.675675675675677" height="27.675675675675677" style="fill:rgb(59,104,171);shape-rendering:crispEdges;"/>
  <rect x="470.4864864864865" y="774.918918918919" width="27.675675675675677" height="27.675675675675677" style="fill:rgb(59,104,171);shape-rendering:crispEdges;"/>
  <rect x="581.1891891891892" y="774.918918918919" width="27.675675675675677" height="27.675675675675677" style="fill:rgb(59,104,171);shape-rendering:crispEdges;"/>
  <rect x="636.5405405405406" y="774.918918918919" width="27.675675675675677" height="27.675675675675677" style="fill:rgb(59,104,171);shape-rendering:crispEdges;"/>
  <rect x="664.2162162162163" y="774.918918918919" width="27.675675675675677" height="27.675675675675677" style="fill:rgb(59,104,171);shape-rendering:crispEdges;"/>
  <rect x="691.8918918918919" y="774.918918918919" width="27.675675675675677" height="27.675675675675677" style="fill:rgb(59,104,171);shape-rendering:crispEdges;"/>
  <rect x="719.5675675675676" y="774.918918918919" width="27.675675675675677" height="27.675675675675677" style="fill:rgb(59,104,171);shape-rendering:crispEdges;"/>
  <rect x="747.2432432432433" y="774.918918918919" width="27.675675675675677" height="27.675675675675677" style="fill:rgb(59,104,171);shape-rendering:crispEdges;"/>
  <rect x="774.918918918919" y="774.918918918919" width="27.675675675675677" height="27.675675675675677" style="fill:rgb(59,104,171);shape-rendering:crispEdges;"/>
  <rect x="857.945945945946" y="774.918918918919" width="27.675675675675677" height="27.675675675675677" style="fill:rgb(59,104,171);shape-rendering:crispEdges;"/>
  <rect x="885.6216216216217" y="774.918918918919" width="27.675675675675677" height="27.675675675675677" style="fill:rgb(59,104,171);shape-rendering:crispEdges;"/>
  <rect x="110.70270270270271" y="802.5945945945946" width="27.675675675675677" height="27.675675675675677" style="fill:rgb(59,104,171);shape-rendering:crispEdges;"/>
  <rect x="166.05405405405406" y="802.5945945945946" width="27.675675675675677" height="27.675675675675677" style="fill:rgb(59,104,171);shape-rendering:crispEdges;"/>
  <rect x="193.72972972972974" y="802.5945945945946" width="27.675675675675677" height="27.675675675675677" style="fill:rgb(59,104,171);shape-rendering:crispEdges;"/>
  <rect x="221.40540540540542" y="802.5945945945946" width="27.675675675675677" height="27.675675675675677" style="fill:rgb(59,104,171);shape-rendering:crispEdges;"/>
  <rect x="276.7567567567568" y="802.5945945945946" width="27.675675675675677" height="27.675675675675677" style="fill:rgb(59,104,171);shape-rendering:crispEdges;"/>
  <rect x="332.1081081081081" y="802.5945945945946" width="27.675675675675677" height="27.675675675675677" style="fill:rgb(59,104,171);shape-rendering:crispEdges;"/>
  <rect x="359.7837837837838" y="802.5945945945946" width="27.675675675675677" height="27.675675675675677" style="fill:rgb(59,104,171);shape-rendering:crispEdges;"/>
  <rect x="415.13513513513516" y="802.5945945945946" width="27.675675675675677" height="27.675675675675677" style="fill:rgb(59,104,171);shape-rendering:crispEdges;"/>
  <rect x="470.4864864864865" y="802.5945945945946" width="27.675675675675677" height="27.675675675675677" style="fill:rgb(59,104,171);shape-rendering:crispEdges;"/>
  <rect x="498.1621621621622" y="802.5945945945946" width="27.675675675675677" height="27.675675675675677" style="fill:rgb(59,104,171);shape-rendering:crispEdges;"/>
  <rect x="581.1891891891892" y="802.5945945945946" width="27.675675675675677" height="27.675675675675677" style="fill:rgb(59,104,171);shape-rendering:crispEdges;"/>
  <rect x="664.2162162162163" y="802.5945945945946" width="27.675675675675677" height="27.675675675675677" style="fill:rgb(59,104,171);shape-rendering:crispEdges;"/>
  <rect x="719.5675675675676" y="802.5945945945946" width="27.675675675675677" height="27.675675675675677" style="fill:rgb(59,104,171);shape-rendering:crispEdges;"/>
  <rect x="774.918918918919" y="802.5945945945946" width="27.675675675675677" height="27.675675675675677" style="fill:rgb(59,104,171);shape-rendering:crispEdges;"/>
  <rect x="830.2702702702703" y="802.5945945945946" width="27.675675675675677" height="27.675675675675677" style="fill:rgb(59,104,171);shape-rendering:crispEdges;"/>
  <rect x="857.945945945946" y="802.5945945945946" width="27.675675675675677" height="27.675675675675677" style="fill:rgb(59,104,171);shape-rendering:crispEdges;"/>
  <rect x="885.6216216216217" y="802.5945945945946" width="27.675675675675677" height="27.675675675675677" style="fill:rgb(59,104,171);shape-rendering:crispEdges;"/>
  <rect x="110.70270270270271" y="830.2702702702703" width="27.675675675675677" height="27.675675675675677" style="fill:rgb(59,104,171);shape-rendering:crispEdges;"/>
  <rect x="166.05405405405406" y="830.2702702702703" width="27.675675675675677" height="27.675675675675677" style="fill:rgb(59,104,171);shape-rendering:crispEdges;"/>
  <rect x="193.72972972972974" y="830.2702702702703" width="27.675675675675677" height="27.675675675675677" style="fill:rgb(59,104,171);shape-rendering:crispEdges;"/>
  <rect x="221.40540540540542" y="830.2702702702703" width="27.675675675675677" height="27.675675675675677" style="fill:rgb(59,104,171);shape-rendering:crispEdges;"/>
  <rect x="276.7567567567568" y="830.2702702702703" width="27.675675675675677" height="27.675675675675677" style="fill:rgb(59,104,171);shape-rendering:crispEdges;"/>
  <rect x="359.7837837837838" y="830.2702702702703" width="27.675675675675677" height="27.675675675675677" style="fill:rgb(59,104,171);shape-rendering:crispEdges;"/>
  <rect x="470.4864864864865" y="830.2702702702703" width="27.675675675675677" height="27.675675675675677" style="fill:rgb(59,104,171);shape-rendering:crispEdges;"/>
  <rect x="498.1621621621622" y="830.2702702702703" width="27.675675675675677" height="27.675675675675677" style="fill:rgb(59,104,171);shape-rendering:crispEdges;"/>
  <rect x="608.8648648648649" y="830.2702702702703" width="27.675675675675677" height="27.675675675675677" style="fill:rgb(59,104,171);shape-rendering:crispEdges;"/>
  <rect x="719.5675675675676" y="830.2702702702703" width="27.675675675675677" height="27.675675675675677" style="fill:rgb(59,104,171);shape-rendering:crispEdges;"/>
  <rect x="830.2702702702703" y="830.2702702702703" width="27.675675675675677" height="27.675675675675677" style="fill:rgb(59,104,171);shape-rendering:crispEdges;"/>
  <rect x="110.70270270270271" y="857.945945945946" width="27.675675675675677" height="27.675675675675677" style="fill:rgb(59,104,171);shape-rendering:crispEdges;"/>
  <rect x="276.7567567567568" y="857.945945945946" width="27.675675675675677" height="27.675675675675677" style="fill:rgb(59,104,171);shape-rendering:crispEdges;"/>
  <rect x="359.7837837837838" y="857.945945945946" width="27.675675675675677" height="27.675675675675677" style="fill:rgb(59,104,171);shape-rendering:crispEdges;"/>
  <rect x="415.13513513513516" y="857.945945945946" width="27.675675675675677" height="27.675675675675677" style="fill:rgb(59,104,171);shape-rendering:crispEdges;"/>
  <rect x="442.81081081081084" y="857.945945945946" width="27.675675675675677" height="27.675675675675677" style="fill:rgb(59,104,171);shape-rendering:crispEdges;"/>
  <rect x="470.4864864864865" y="857.945945945946" width="27.675675675675677" height="27.675675675675677" style="fill:rgb(59,104,171);shape-rendering:crispEdges;"/>
  <rect x="525.8378378378379" y="857.945945945946" width="27.675675675675677" height="27.675675675675677" style="fill:rgb(59,104,171);shape-rendering:crispEdges;"/>
  <rect x="553.5135135135135" y="857.945945945946" width="27.675675675675677" height="27.675675675675677" style="fill:rgb(59,104,171);shape-rendering:crispEdges;"/>
  <rect x="581.1891891891892" y="857.945945945946" width="27.675675675675677" height="27.675675675675677" style="fill:rgb(59,104,171);shape-rendering:crispEdges;"/>
  <rect x="636.5405405405406" y="857.945945945946" width="27.675675675675677" height="27.675675675675677" style="fill:rgb(59,104,171);shape-rendering:crispEdges;"/>
  <rect x="747.2432432432433" y="857.945945945946" width="27.675675675675677" height="27.675675675675677" style="fill:rgb(59,104,171);shape-rendering:crispEdges;"/>
  <rect x="774.918918918919" y="857.945945945946" width="27.675675675675677" height="27.675675675675677" style="fill:rgb(59,104,171);shape-rendering:crispEdges;"/>
  <rect x="830.2702702702703" y="857.945945945946" width="27.675675675675677" height="27.675675675675677" style="fill:rgb(59,104,171);shape-rendering:crispEdges;"/>
  <rect x="857.945945945946" y="857.945945945946" width="27.675675675675677" height="27.675675675675677" style="fill:rgb(59,104,171);shape-rendering:crispEdges;"/>
  <rect x="885.6216216216217" y="857.945945945946" width="27.675675675675677" height="27.675675675675677" style="fill:rgb(59,104,171);shape-rendering:crispEdges;"/>
  <rect x="110.70270270270271" y="885.6216216216217" width="27.675675675675677" height="27.675675675675677" style="fill:rgb(59,104,171);shape-rendering:crispEdges;"/>
  <rect x="138.3783783783784" y="885.6216216216217" width="27.675675675675677" height="27.675675675675677" style="fill:rgb(59,104,171);shape-rendering:crispEdges;"/>
  <rect x="166.05405405405406" y="885.6216216216217" width="27.675675675675677" height="27.675675675675677" style="fill:rgb(59,104,171);shape-rendering:crispEdges;"/>
  <rect x="193.72972972972974" y="885.6216216216217" width="27.675675675675677" height="27.675675675675677" style="fill:rgb(59,104,171);shape-rendering:crispEdges;"/>
  <rect x="221.40540540540542" y="885.6216216216217" width="27.675675675675677" height="27.675675675675677" style="fill:rgb(59,104,171);shape-rendering:crispEdges;"/>
  <rect x="249.0810810810811" y="885.6216216216217" width="27.675675675675677" height="27.675675675675677" style="fill:rgb(59,104,171);shape-rendering:crispEdges;"/>
  <rect x="276.7567567567568" y="885.6216216216217" width="27.675675675675677" height="27.675675675675677" style="fill:rgb(59,104,171);shape-rendering:crispEdges;"/>
  <rect x="332.1081081081081" y="885.6216216216217" width="27.675675675675677" height="27.675675675675677" style="fill:rgb(59,104,171);shape-rendering:crispEdges;"/>
  <rect x="359.7837837837838" y="885.6216216216217" width="27.675675675675677" height="27.675675675675677" style="fill:rgb(59,104,171);shape-rendering:crispEdges;"/>
  <rect x="387.4594594594595" y="885.6216216216217" width="27.675675675675677" height="27.675675675675677" style="fill:rgb(59,104,171);shape-rendering:crispEdges;"/>
  <rect x="415.13513513513516" y="885.6216216216217" width="27.675675675675677" height="27.675675675675677" style="fill:rgb(59,104,171);shape-rendering:crispEdges;"/>
  <rect x="470.4864864864865" y="885.6216216216217" width="27.675675675675677" height="27.675675675675677" style="fill:rgb(59,104,171);shape-rendering:crispEdges;"/>
  <rect x="498.1621621621622" y="885.6216216216217" width="27.675675675675677" height="27.675675675675677" style="fill:rgb(59,104,171);shape-rendering:crispEdges;"/>
  <rect x="525.8378378378379" y="885.6216216216217" width="27.675675675675677" height="27.675675675675677" style="fill:rgb(59,104,171);shape-rendering:crispEdges;"/>
  <rect x="581.1891891891892" y="885.6216216216217" width="27.675675675675677" height="27.675675675675677" style="fill:rgb(59,104,171);shape-rendering:crispEdges;"/>
  <rect x="608.8648648648649" y="885.6216216216217" width="27.675675675675677" height="27.675675675675677" style="fill:rgb(59,104,171);shape-rendering:crispEdges;"/>
  <rect x="636.5405405405406" y="885.6216216216217" width="27.675675675675677" height="27.675675675675677" style="fill:rgb(59,104,171);shape-rendering:crispEdges;"/>
  <rect x="664.2162162162163" y="885.6216216216217" width="27.675675675675677" height="27.675675675675677" style="fill:rgb(59,104,171);shape-rendering:crispEdges;"/>
  <rect x="691.8918918918919" y="885.6216216216217" width="27.675675675675677" height="27.675675675675677" style="fill:rgb(59,104,171);shape-rendering:crispEdges;"/>
  <rect x="719.5675675675676" y="885.6216216216217" width="27.675675675675677" height="27.675675675675677" style="fill:rgb(59,104,171);shape-rendering:crispEdges;"/>
  <rect x="747.2432432432433" y="885.6216216216217" width="27.675675675675677" height="27.675675675675677" style="fill:rgb(59,104,171);shape-rendering:crispEdges;"/>
  <rect x="802.5945945945946" y="885.6216216216217" width="27.675675675675677" height="27.675675675675677" style="fill:rgb(59,104,171);shape-rendering:crispEdges;"/>
  <rect x="830.2702702702703" y="885.6216216216217" width="27.675675675675677" height="27.675675675675677" style="fill:rgb(59,104,171);shape-rendering:crispEdges;"/>
  <rect x="857.945945945946" y="885.6216216216217" width="27.675675675675677" height="27.675675675675677" style="fill:rgb(59,104,171);shape-rendering:crispEdges;"/>
</svg>